<svg width="160" height="40" xmlns="http://www.w3.org/2000/svg" data-name="图层 1">

 <title>travelling</title>
 <g>
  <title>Layer 1</title>
  <path id="svg_4" fill="#000000" d="m20.56,31.59l-1,0a4.4,4.4 0 0 1 -4.17,-2.84c-0.08,-0.21 -0.17,-0.25 -0.38,-0.25a20.9,20.9 0 0 1 -5.4,-0.48a6.33,6.33 0 0 1 -2,-0.82a2,2 0 0 1 -0.77,-2.7a6.19,6.19 0 0 1 1.65,-2.08a26,26 0 0 1 6,-3.78c0.65,-0.32 1.31,-0.61 2,-0.91l0.2,-0.07a6.85,6.85 0 0 1 0,0.79c0,0.09 -0.18,0.16 -0.29,0.22c-1.45,0.75 -2.93,1.47 -4.37,2.26a14.47,14.47 0 0 0 -3.38,2.54a4.27,4.27 0 0 0 -1.07,1.55a1.1,1.1 0 0 0 0.3,1.27a4.56,4.56 0 0 0 2.06,0.94a15.82,15.82 0 0 0 3.56,0.42c0.54,0 1.08,0 1.64,0l0,-3.84a6,6 0 0 1 0.72,0.44c0.08,0.06 0.1,0.23 0.1,0.35c0,0.95 0,1.9 0,2.85c0,0.05 0,0.1 0,0.2l2.51,-0.18a2.69,2.69 0 0 1 -1.17,-2.31a2.56,2.56 0 0 1 0.75,-1.72a2.63,2.63 0 0 1 3.33,-0.34a2.55,2.55 0 0 1 1.13,1.82a2.75,2.75 0 0 1 -0.64,2.12c1.26,-0.25 2.44,-0.46 3.61,-0.71q3.49,-0.75 6.9,-1.83a0.53,0.53 0 0 0 0.35,-0.3a2.58,2.58 0 0 1 3.6,-1.24a0.43,0.43 0 0 0 0.33,0a40.54,40.54 0 0 0 8.11,-4.08a11.05,11.05 0 0 0 2.48,-2.14a5.1,5.1 0 0 0 0.71,-1.15a1,1 0 0 0 -0.33,-1.33a4.24,4.24 0 0 0 -1.82,-0.85a16.29,16.29 0 0 0 -3.81,-0.41l-2.12,0l0,3.24c-0.28,-0.16 -0.51,-0.28 -0.73,-0.43a0.29,0.29 0 0 1 -0.08,-0.21c0,-1.34 0,-2.68 0,-4a3.66,3.66 0 0 0 -3.1,-3.85a3.5,3.5 0 0 0 -0.65,0l-15.73,0a3.57,3.57 0 0 0 -3.65,3a6.18,6.18 0 0 0 -0.05,1.06c0,1.23 0,2.47 0,3.71a0.45,0.45 0 0 1 -0.27,0.48a5.22,5.22 0 0 0 -0.54,0.31c0,-0.12 0,-0.21 0,-0.3l0,-4.66a4.42,4.42 0 0 1 4.44,-4.43l15.92,0a4.39,4.39 0 0 1 4.33,3.7c0.08,0.52 0.07,1 0.11,1.61l0.4,0a21.93,21.93 0 0 1 5.54,0.46a5.88,5.88 0 0 1 2.12,0.91a2,2 0 0 1 0.68,2.65a6.73,6.73 0 0 1 -1.84,2.23a27.34,27.34 0 0 1 -6.35,3.87c-1,0.47 -2,0.89 -3.07,1.34l-0.19,0.09a2.56,2.56 0 0 1 -0.17,3.22a2.36,2.36 0 0 1 -2.52,0.77a2.61,2.61 0 0 1 -2,-2.47a68.93,68.93 0 0 1 -16.29,3.13a3.51,3.51 0 0 0 0.93,1.36a3.69,3.69 0 0 0 2.63,0.95l13.1,0c0.93,0 1.86,0 2.79,0a3.53,3.53 0 0 0 3.38,-3.13c0.08,-1 0,-2 0,-3a0.43,0.43 0 0 1 0.28,-0.47c0.17,-0.07 0.32,-0.18 0.51,-0.28a2.06,2.06 0 0 1 0,0.21c0,1.11 0,2.22 0,3.33a4.33,4.33 0 0 1 -3.35,4a12.48,12.48 0 0 1 -1.94,0.13a2.4,2.4 0 0 1 -0.27,0l0.17,0.22l0.76,0.86a0.43,0.43 0 0 1 0,0.6a0.4,0.4 0 0 1 -0.61,-0.06c-0.43,-0.46 -0.85,-0.93 -1.26,-1.42a0.54,0.54 0 0 0 -0.46,-0.2l-10.94,0a0.68,0.68 0 0 0 -0.42,0.19c-0.42,0.44 -0.81,0.9 -1.21,1.36c-0.23,0.26 -0.47,0.31 -0.67,0.13s-0.17,-0.42 0.06,-0.68l0.13,-0.15l0.76,-0.79z" class="cls-2"/>
  <path id="svg_5" fill="#000000" d="m26.12,15.24l0,1.41c0,0.94 0,1.88 0,2.82a1.08,1.08 0 0 1 -1.12,1.13c-2.23,0 -4.47,0 -6.7,0a1,1 0 0 1 -1.1,-1.08l0,-8.05a1.06,1.06 0 0 1 1.16,-1.13c1,0 2,0 3,0l3.64,0a1,1 0 0 1 1.08,1.1c0,1 0,1.93 0,2.93l2.17,-0.54c0,0.27 0,0.5 0,0.73c0,0.06 -0.11,0.13 -0.18,0.15l-1.95,0.53z" class="cls-2"/>
  <path id="svg_6" fill="#000000" d="m37.73,12.25l0.71,0l0,0.75l-0.7,0.09l0,6.23a1.1,1.1 0 0 1 -0.49,1.08a1.19,1.19 0 0 1 -0.55,0.15l-6.84,0a1,1 0 0 1 -1,-1l0,-8a1,1 0 0 1 1.18,-1.19l6.53,0a1,1 0 0 1 1.19,1.09a7.82,7.82 0 0 1 -0.03,0.8z" class="cls-2"/>
  <path id="svg_7" stroke-width="0.25px" stroke="#000" fill="#000000" stroke-miterlimit="10" d="m63.66,12l0,1.41l-5.05,0l0,15.12l-1.55,0l0,-15.14l-5.06,0l0,-1.39l11.66,0z" class="cls-3"/>
  <path id="svg_8" stroke-width="0.25px" stroke="#000" fill="#000000" stroke-miterlimit="10" d="m69.38,15.94a7.7,7.7 0 0 1 1.38,0.12a4.15,4.15 0 0 1 0.9,0.24l-0.3,1.33a3.34,3.34 0 0 0 -0.74,-0.2a8.16,8.16 0 0 0 -1.47,-0.11a6.39,6.39 0 0 0 -1.54,0.15a3.38,3.38 0 0 0 -0.76,0.24l0,10.8l-1.48,0l0,-11.76a10.83,10.83 0 0 1 1.57,-0.53a9,9 0 0 1 2.44,-0.28z" class="cls-3"/>
  <path id="svg_9" stroke-width="0.25px" stroke="#000" fill="#000000" stroke-miterlimit="10" d="m77.46,15.89a5,5 0 0 1 2,0.35a3.39,3.39 0 0 1 1.31,0.95a3.75,3.75 0 0 1 0.73,1.45a6.9,6.9 0 0 1 0.23,1.81l0,7.78a4.81,4.81 0 0 1 -0.66,0.15l-1,0.18c-0.38,0.07 -0.8,0.12 -1.27,0.16s-0.94,0.06 -1.42,0.06a6.23,6.23 0 0 1 -1.72,-0.22a3.75,3.75 0 0 1 -1.37,-0.68a3.29,3.29 0 0 1 -0.91,-1.19a4.32,4.32 0 0 1 -0.33,-1.78a3.67,3.67 0 0 1 0.37,-1.72a3.22,3.22 0 0 1 1,-1.18a4.67,4.67 0 0 1 1.57,-0.68a8.84,8.84 0 0 1 2,-0.21l0.68,0l0.68,0.1l0.57,0.12a1.23,1.23 0 0 1 0.33,0.11l0,-0.77a8.55,8.55 0 0 0 -0.09,-1.25a2.9,2.9 0 0 0 -0.4,-1.1a2.2,2.2 0 0 0 -0.87,-0.78a3.09,3.09 0 0 0 -1.47,-0.3a7.11,7.11 0 0 0 -1.93,0.19c-0.43,0.13 -0.74,0.23 -0.93,0.31l-0.21,-1.36a5.14,5.14 0 0 1 1.2,-0.36a9.7,9.7 0 0 1 1.91,-0.14zm0.14,11.5c0.58,0 1.08,0 1.51,-0.06a10.76,10.76 0 0 0 1.11,-0.15l0,-4.34a3.82,3.82 0 0 0 -0.8,-0.25a6.45,6.45 0 0 0 -1.5,-0.14a7.49,7.49 0 0 0 -1.14,0.09a2.92,2.92 0 0 0 -1.09,0.36a2.1,2.1 0 0 0 -1.14,2a2.91,2.91 0 0 0 0.21,1.17a1.86,1.86 0 0 0 0.62,0.76a2.48,2.48 0 0 0 1,0.42a5.36,5.36 0 0 0 1.22,0.14z" class="cls-3"/>
  <path id="svg_10" stroke-width="0.25px" stroke="#000" fill="#000000" stroke-miterlimit="10" d="m89,26.84c0.32,-0.68 0.65,-1.46 1,-2.35s0.66,-1.79 1,-2.74s0.6,-1.9 0.87,-2.86s0.49,-1.87 0.67,-2.71l1.46,0c-0.27,1.13 -0.58,2.24 -0.92,3.34s-0.69,2.17 -1.06,3.22s-0.77,2.06 -1.17,3s-0.8,1.89 -1.18,2.74l-1.38,0c-0.4,-0.85 -0.8,-1.77 -1.19,-2.74s-0.79,-2 -1.16,-3s-0.73,-2.12 -1.07,-3.22s-0.64,-2.21 -0.91,-3.34l1.57,0c0.18,0.84 0.41,1.75 0.67,2.71s0.56,1.91 0.87,2.86s0.64,1.86 1,2.74s0.65,1.67 0.93,2.35z" class="cls-3"/>
  <path id="svg_11" stroke-width="0.25px" stroke="#000" fill="#000000" stroke-miterlimit="10" d="m95.71,22.34a8.29,8.29 0 0 1 0.44,-2.83a6.27,6.27 0 0 1 1.16,-2a4.6,4.6 0 0 1 1.64,-1.2a4.7,4.7 0 0 1 1.9,-0.4a4.34,4.34 0 0 1 3.45,1.48a6.82,6.82 0 0 1 1.29,4.56c0,0.13 0,0.25 0,0.38l0,0.36l-8.27,0a5.57,5.57 0 0 0 1.07,3.48a3.91,3.91 0 0 0 3.19,1.22a6.13,6.13 0 0 0 1.91,-0.24a9,9 0 0 0 1,-0.4l0.27,1.33a5.46,5.46 0 0 1 -1.2,0.45a7,7 0 0 1 -2.06,0.27a6.55,6.55 0 0 1 -2.64,-0.48a4.68,4.68 0 0 1 -1.8,-1.34a5.3,5.3 0 0 1 -1,-2a9.55,9.55 0 0 1 -0.35,-2.64zm8.36,-1a5.05,5.05 0 0 0 -0.87,-3a2.74,2.74 0 0 0 -2.32,-1.07a3,3 0 0 0 -1.43,0.33a3.6,3.6 0 0 0 -1.09,0.9a4.22,4.22 0 0 0 -0.73,1.3a5.69,5.69 0 0 0 -0.31,1.55l6.75,-0.01z" class="cls-3"/>
  <path id="svg_12" stroke-width="0.25px" stroke="#000" fill="#000000" stroke-miterlimit="10" d="m111.88,28.73a4.94,4.94 0 0 1 -1.31,-0.2a2.44,2.44 0 0 1 -0.94,-0.55a2.41,2.41 0 0 1 -0.57,-1a5,5 0 0 1 -0.19,-1.46l0,-15.23l1.48,-0.29l0,15.51a3.73,3.73 0 0 0 0.1,0.92a1.12,1.12 0 0 0 0.85,0.84a5.79,5.79 0 0 0 0.78,0.17l-0.2,1.29z" class="cls-3"/>
  <path id="svg_13" stroke-width="0.25px" stroke="#000" fill="#000000" stroke-miterlimit="10" d="m117.69,28.73a4.88,4.88 0 0 1 -1.31,-0.2a2.37,2.37 0 0 1 -0.94,-0.55a2.41,2.41 0 0 1 -0.57,-1a4.7,4.7 0 0 1 -0.19,-1.46l0,-15.23l1.48,-0.29l0,15.51a3.3,3.3 0 0 0 0.1,0.92a1.28,1.28 0 0 0 0.31,0.55a1.24,1.24 0 0 0 0.53,0.29a6,6 0 0 0 0.79,0.17l-0.2,1.29z" class="cls-3"/>
  <path id="svg_14" stroke-width="0.25px" stroke="#000" fill="#000000" stroke-miterlimit="10" d="m122.33,12.46a1.17,1.17 0 0 1 -0.32,0.87a1.06,1.06 0 0 1 -0.77,0.32a1.08,1.08 0 0 1 -0.78,-0.32a1.2,1.2 0 0 1 -0.31,-0.87a1.17,1.17 0 0 1 0.31,-0.87a1.05,1.05 0 0 1 0.78,-0.33a1,1 0 0 1 0.77,0.33a1.14,1.14 0 0 1 0.32,0.87zm-0.33,16.05l-1.48,0l0,-12.33l1.48,0l0,12.33z" class="cls-3"/>
  <path id="svg_15" stroke-width="0.25px" stroke="#000" fill="#000000" stroke-miterlimit="10" d="m125.91,16.61c0.44,-0.13 1,-0.27 1.77,-0.43a13.34,13.34 0 0 1 2.74,-0.24a5.47,5.47 0 0 1 2.24,0.41a3.5,3.5 0 0 1 1.44,1.15a5,5 0 0 1 0.76,1.8a11.19,11.19 0 0 1 0.23,2.32l0,6.89l-1.48,0l0,-6.39a11.7,11.7 0 0 0 -0.18,-2.22a3.85,3.85 0 0 0 -0.56,-1.48a2.29,2.29 0 0 0 -1.05,-0.82a4.54,4.54 0 0 0 -1.63,-0.25a11.82,11.82 0 0 0 -1.81,0.12a5.77,5.77 0 0 0 -1,0.21l0,10.83l-1.48,0l0.01,-11.9z" class="cls-3"/>
  <path id="svg_16" stroke-width="0.25px" stroke="#000" fill="#000000" stroke-miterlimit="10" d="m146.54,27.08a3.11,3.11 0 0 1 -0.41,0.28a6.13,6.13 0 0 1 -0.67,0.32a5.16,5.16 0 0 1 -0.91,0.27a5.1,5.1 0 0 1 -1.15,0.11a6,6 0 0 1 -2,-0.33a4.59,4.59 0 0 1 -1.68,-1.05a5.4,5.4 0 0 1 -1.15,-1.85a7.77,7.77 0 0 1 -0.43,-2.76a7.37,7.37 0 0 1 0.39,-2.43a5.82,5.82 0 0 1 1.1,-1.95a5.16,5.16 0 0 1 1.76,-1.28a5.64,5.64 0 0 1 2.33,-0.47a12.29,12.29 0 0 1 2.63,0.23c0.66,0.15 1.2,0.3 1.63,0.44l0,11.26a5,5 0 0 1 -1.37,3.95a6.14,6.14 0 0 1 -4.12,1.18a10.75,10.75 0 0 1 -2.06,-0.18a10.45,10.45 0 0 1 -1.58,-0.42l0.29,-1.4a7,7 0 0 0 1.49,0.45a9.45,9.45 0 0 0 1.91,0.19a4.47,4.47 0 0 0 3,-0.85a3.74,3.74 0 0 0 0.94,-2.9l0.06,-0.81zm0,-9.4a8.24,8.24 0 0 0 -1,-0.22a10,10 0 0 0 -1.76,-0.11a4,4 0 0 0 -1.69,0.34a3.71,3.71 0 0 0 -1.27,1a4.35,4.35 0 0 0 -0.79,1.51a6.82,6.82 0 0 0 0,4a4.07,4.07 0 0 0 0.83,1.42a3,3 0 0 0 1.18,0.8a3.66,3.66 0 0 0 1.34,0.25a5.09,5.09 0 0 0 1.83,-0.31a3.87,3.87 0 0 0 1.29,-0.71l0.04,-7.97z" class="cls-3"/>
 </g>
</svg>