<svg data-v-0dd9719b="" version="1.0" xmlns="http://www.w3.org/2000/svg" xmlns:xlink="http://www.w3.org/1999/xlink" width="100" height="30" viewBox="66 84 200 80" preserveAspectRatio="xMidYMid meet" color-interpolation-filters="sRGB" style="margin: auto;">   <g data-v-0dd9719b="" fill="url(#linearGradientBg)" class="icon-text-wrapper icon-svg-group iconsvg" transform="translate(54.55500030517578,94.87861061096191)"><g class="iconsvg-imagesvg" transform="translate(-10,0)"><g><rect fill="url(#linearGradientBg)" fill-opacity="0" stroke-width="2" x="0" y="0" width="56" height="56" class="image-rect"></rect> <svg x="0" y="0" width="56" height="56" filtersec="colorsb8649217430" class="image-svg-svg primary" style="overflow: visible;"><svg xmlns="http://www.w3.org/2000/svg" viewBox="0 -10 608.0999755859375 620.5999755859375"><path d="M136.5 183.6H149c1.7 0 3-1.4 3-3v-12.5c0-1.7-1.4-3-3-3h-12.5c-1.7 0-3 1.4-3 3v12.5c-.1 1.7 1.3 3 3 3zM112.9 280.3v14.8c0 2 1.6 3.6 3.6 3.6h14.8c2 0 3.6-1.6 3.6-3.6v-14.8c0-2-1.6-3.6-3.6-3.6h-14.8c-2 0-3.6 1.6-3.6 3.6zM36.1 305.8v-24.3c0-3.2-2.6-5.9-5.9-5.9H5.9c-3.2 0-5.9 2.6-5.9 5.9v24.3c0 3.2 2.6 5.9 5.9 5.9h24.3c3.2 0 5.9-2.7 5.9-5.9zM42.6 260.9h58.5c7.8 0 14.2-6.4 14.2-14.2v-58.5c0-7.8-6.4-14.2-14.2-14.2H42.6c-7.8 0-14.2 6.4-14.2 14.2v58.5c0 7.8 6.4 14.2 14.2 14.2zM154.2 148.9h65.5c8.7 0 15.9-7.1 15.9-15.9V67.6c0-8.7-7.1-15.9-15.9-15.9h-65.5c-8.7 0-15.9 7.1-15.9 15.9v65.5c.1 8.7 7.2 15.8 15.9 15.8zM478.5 160h83.7c4.9 0 9.5.9 13.8 2.6-13.5-23.1-29.9-44.3-48.7-63.1C471.2 43.4 393.6 8.7 307.9 8.7V123.8c53.5 0 102 21.5 137.2 56.4 6.4-12 19-20.2 33.4-20.2zM261.7 118.2c-2.3 0-4.1 1.8-4.1 4.1v16.9c0 2.3 1.8 4.1 4.1 4.1h16.9c2.3 0 4.1-1.8 4.1-4.1v-16.9c0-2.3-1.8-4.1-4.1-4.1h-16.9zM77.5 153h26.1c3.5 0 6.3-2.8 6.3-6.3v-26.1c0-3.5-2.8-6.3-6.3-6.3H77.5c-3.5 0-6.3 2.8-6.3 6.3v26.1c0 3.4 2.9 6.3 6.3 6.3zM282.1 530.8h-13.2c-1.8 0-3.2 1.4-3.2 3.2v13.2c0 1.8 1.4 3.2 3.2 3.2h13.2c1.8 0 3.2-1.4 3.2-3.2V534c0-1.8-1.5-3.2-3.2-3.2zM599.8 281.4c0 20.7-16.9 37.7-37.7 37.7H503c0 107.8-87.4 195.1-195.2 195.1V629.3c85.7 0 163.3-34.7 219.4-90.9 56.1-56.1 90.9-133.7 90.9-219.4 0-37-6.5-72.5-18.4-105.4v67.8zM112.1 473.8H78.8c-4.4 0-8.1 3.6-8.1 8.1v33.3c0 4.4 3.6 8.1 8.1 8.1h33.3c4.4 0 8.1-3.6 8.1-8.1v-33.3c-.1-4.5-3.7-8.1-8.1-8.1zM282 460.2v-24.3c0-3.2-2.6-5.9-5.9-5.9h-24.3c-3.2 0-5.9 2.6-5.9 5.9v24.3c0 3.2 2.6 5.9 5.9 5.9h24.3c3.3 0 5.9-2.7 5.9-5.9zM230 493.4h-65.4c-8.7 0-15.9 7.1-15.9 15.9v65.4c0 8.7 7.1 15.9 15.9 15.9H230c8.7 0 15.9-7.1 15.9-15.9v-65.4c-.1-8.7-7.2-15.9-15.9-15.9zM253.2 390v-48.6c0-6.5-5.3-11.8-11.8-11.8h-48.6c-6.5 0-11.8 5.3-11.8 11.8V390c0 6.5 5.3 11.8 11.8 11.8h48.6c6.5 0 11.8-5.3 11.8-11.8z" fill="rgba(96, 28, 205, 1)"></path><linearGradient id="a23ca9a45-1be7-40b5-9436-d6ce29d47b8b" gradientUnits="userSpaceOnUse" x1="20.209" y1="314.098" x2="582.468" y2="314.098"><stop offset="0" stop-color="rgba(126, 9, 184, 1)"></stop><stop offset="1" stop-color="rgba(126, 9, 184, 1)"></stop></linearGradient><path d="M179.9 300.5c2.1.7 4.3 1.1 6.6 1.1h83.7c2.3 0 4.6-.4 6.6-1.1l37.4 37.4c-1.3 2.7-2 5.7-2 8.8v83.7c0 11.2 9.1 20.3 20.3 20.3h83.7c11.2 0 20.3-9.1 20.3-20.3v-83.7c0-3.2-.7-6.2-2-8.8l37.4-37.4c2.1.7 4.3 1.1 6.6 1.1h83.7c11.2 0 20.3-9.1 20.3-20.3v-83.7c0-11.2-9.1-20.3-20.3-20.3h-83.7c-11.2 0-20.3 9.1-20.3 20.3v83.7c0 2.8.6 5.5 1.6 7.9l-38.1 38.1c-1.8-.5-3.6-.8-5.6-.8h-83.7c-1.9 0-3.8.3-5.6.8l-38.1-38.1c1-2.4 1.6-5.1 1.6-7.9v-83.7c0-11.2-9.1-20.3-20.3-20.3h-83.7c-11.2 0-20.3 9.1-20.3 20.3v83.7c0 2.8.6 5.5 1.6 7.9l-38.1 38.1c-1.8-.5-3.6-.8-5.6-.8H40.5c-11.2 0-20.3 9.1-20.3 20.3v83.7c0 11.2 9.1 20.3 20.3 20.3h83.7c11.2 0 20.3-9.1 20.3-20.3v-83.7c0-3.2-.7-6.2-2-8.8l37.4-37.5z" fill="url(#a23ca9a45-1be7-40b5-9436-d6ce29d47b8b)"></path><path d="M189.8 434.5c-1.6 0-2.9 1.3-2.9 2.9v12.1c0 1.6 1.3 2.9 2.9 2.9H202c1.6 0 2.9-1.3 2.9-2.9v-12.1c0-1.6-1.3-2.9-2.9-2.9h-12.2z" fill="url(#linearGradientBg)"></path></svg></svg></g></g> <g transform="translate(67,7.041387557983398)"><g data-gra="path-name" fill-rule="" class="tp-name iconsvg-namesvg"><g transform="scale(1)"><g><path d="M24.84-3.1L24.84-0.94 39.64-0.94 39.64 5.54 1.98 5.54 1.98-0.94 17.82-0.94 17.82-3.15 5.71-3.15 5.71-8.46 2.25-10.48 7.56-19.71 5.54-19.71 5.54-37.89 36.59-37.89 36.59-19.66 24.84-19.66 24.84-17.1 37.62-17.1 37.62-10.8 24.84-10.8 24.84-8.64 36.67-8.64 36.67-3.1 24.84-3.1ZM13.41-17.1L17.82-17.1 17.82-19.71 12.73-19.71 14.35-18.77 13.41-17.1ZM12.06-24.48L29.92-24.48 29.92-26.5 12.06-26.5 12.06-24.48ZM29.92-32.53L12.06-32.53 12.06-30.42 29.92-30.42 29.92-32.53ZM8.5-8.69L17.82-8.69 17.82-10.8 9.76-10.8 8.5-8.69ZM81.22-18.9L75.47-12.33 82.31-0.94 76.55 2.52 70.56-7.47 70.56 6.21 61.42 6.21 61.42-0.63 64.44-0.63 64.44-6.17 58.45-0.77 55.75-3.73 56.79 2.75 43.83 4.86 42.62-2.75 46.98-3.46 46.98-12.78 44.28-12.78 44.28-20.25 46.98-20.25 46.98-28.53 43.97-28.53 43.97-36.05 55.94-36.05 55.94-28.53 52.92-28.53 52.92-20.25 54.45-20.25 59.27-23.45 64.03-16.34 59.04-13 55.53-18.31 55.53-12.78 52.92-12.78 52.92-4.41 54.85-4.72 53.73-5.98 64.44-15.62 64.44-24.16 56.3-24.16 56.3-31.68 64.44-31.68 64.44-38.56 70.56-38.56 70.56-31.68 73.26-31.68 72.31-36.49 77.04-37.44 78.16-31.68 80.01-31.68 80.01-24.16 70.56-24.16 70.56-20.47 72-18.13 76.41-23.18 81.22-18.9ZM109.39-6.03L88.69 5.89 85.64 0.58 98.5-6.84 88.83-6.84 88.83-13.32 89.46-16.43 87.75-16.43 87.75-22.23 91.48-22.23 90.22-26.1 91.39-26.46 87.03-26.46 87.03-36.49 100.84-36.49 100.84-38.79 108.18-38.79 108.18-36.49 122-36.49 122-26.46 117.18-26.46 118.66-25.96 117.45-22.23 121.14-22.23 121.14-16.43 116.14-16.43 116.14-13.32 122.53-13.32 122.53-6.84 116.14-6.84 116.14 6.39 103.14 6.39 103.14-0.99 109.39-0.99 109.39-6.03ZM102.15-29.92L103.77-24.84 95.63-22.23 113.67-22.23 105.21-24.97 106.78-29.83 115.38-27.04 115.38-30.2 93.51-30.2 93.51-27.13 102.15-29.92ZM90.31-16.43L96.21-15.25 95.81-13.32 109.39-13.32 109.39-16.43 90.31-16.43ZM142.88-14.8L139.81-19.39 148-24.88 151.11-20.29 148.54-18.59 152.1-15.75 161.46-15.75 153.04-20.56 155.79-25.38 165.87-19.53 163.13-14.76 162.5-15.12 162.5-10.35 155.66-4.18 164.93 1.71 162.22 5.94 151.78-0.72 143.32 6.88 139.95 3.15 147.38-3.51 144.13-5.63 142.34-3.42 138.74-6.3 146.12-15.52 146.12-15.75 146.25-15.75 148.54-18.59 142.88-14.8ZM130.32-5.08L125.55-6.71 131.53-24.3 128.79-24.3 128.79-31.63 131.81-31.63 131.81-38.66 137.47-38.66 137.47-31.63 140.13-31.63 140.13-24.3 137.47-24.3 137.47-18.5 138.56-19.3 143.15-13 138.74-9.76 137.47-11.47 137.47 6.21 131.81 6.21 131.81-9.45 130.32-5.08ZM141.66-24.48L141.21-30.73 141.7-30.78 149.26-39.28 152.91-36.05 148.63-31.27 155.38-31.81 153.68-33.7 157.28-36.9 165.64-27.49 162.05-24.3 160.65-25.88 141.66-24.48ZM151.29-7.02L154.98-10.35 147.91-10.35 147.28-9.54 151.29-7.02Z" transform="translate(-1.9800000190734863, 39.279998779296875)"></path></g></g></g></g></g><defs v-gra="od"><linearGradient id="linearGradientBg" x1="0%" y1="0%" x2="100%" y2="100%"><stop offset="0%" style="stop-color:rgba(205, 28, 28, 1);stop-opacity:1"></stop><stop offset="100%" style="stop-color:rgba(126, 9, 184, 1);stop-opacity:1"></stop></linearGradient></defs></svg>