<svg width="50" height="50" xmlns="http://www.w3.org/2000/svg" data-name="图层 1">

 <title>travelling</title>
 <g>
  <title>Layer 1</title>
  <rect stroke="#f2f2f2" id="svg_2" stroke-miterlimit="10" rx="50" height="50" width="50" y="0.24281" x="-0.16956" class="cls-1"/>
  <path id="svg_4" fill="#fff" d="m18.02115,36.65536l-1,0a4.4,4.4 0 0 1 -4.17,-2.84c-0.08,-0.21 -0.17,-0.25 -0.38,-0.25a20.9,20.9 0 0 1 -5.4,-0.48a6.33,6.33 0 0 1 -2,-0.82a2,2 0 0 1 -0.77,-2.7a6.19,6.19 0 0 1 1.65,-2.08a26,26 0 0 1 6,-3.78c0.65,-0.32 1.31,-0.61 2,-0.91l0.2,-0.07a6.85,6.85 0 0 1 0,0.79c0,0.09 -0.18,0.16 -0.29,0.22c-1.45,0.75 -2.93,1.47 -4.37,2.26a14.47,14.47 0 0 0 -3.38,2.54a4.27,4.27 0 0 0 -1.07,1.55a1.1,1.1 0 0 0 0.3,1.27a4.56,4.56 0 0 0 2.06,0.94a15.82,15.82 0 0 0 3.56,0.42c0.54,0 1.08,0 1.64,0l0,-3.84a6,6 0 0 1 0.72,0.44c0.08,0.06 0.1,0.23 0.1,0.35c0,0.95 0,1.9 0,2.85c0,0.05 0,0.1 0,0.2l2.51,-0.18a2.69,2.69 0 0 1 -1.17,-2.31a2.56,2.56 0 0 1 0.75,-1.72a2.63,2.63 0 0 1 3.33,-0.34a2.55,2.55 0 0 1 1.13,1.82a2.75,2.75 0 0 1 -0.64,2.12c1.26,-0.25 2.44,-0.46 3.61,-0.71q3.49,-0.75 6.9,-1.83a0.53,0.53 0 0 0 0.35,-0.3a2.58,2.58 0 0 1 3.6,-1.24a0.43,0.43 0 0 0 0.33,0a40.54,40.54 0 0 0 8.11,-4.08a11.05,11.05 0 0 0 2.48,-2.14a5.1,5.1 0 0 0 0.71,-1.15a1,1 0 0 0 -0.33,-1.33a4.24,4.24 0 0 0 -1.82,-0.85a16.29,16.29 0 0 0 -3.81,-0.41l-2.12,0l0,3.24c-0.28,-0.16 -0.51,-0.28 -0.73,-0.43a0.29,0.29 0 0 1 -0.08,-0.21c0,-1.34 0,-2.68 0,-4a3.66,3.66 0 0 0 -3.1,-3.85a3.5,3.5 0 0 0 -0.65,0l-15.73,0a3.57,3.57 0 0 0 -3.65,3a6.18,6.18 0 0 0 -0.05,1.06c0,1.23 0,2.47 0,3.71a0.45,0.45 0 0 1 -0.27,0.48a5.22,5.22 0 0 0 -0.54,0.31c0,-0.12 0,-0.21 0,-0.3l0,-4.66a4.42,4.42 0 0 1 4.44,-4.43l15.92,0a4.39,4.39 0 0 1 4.33,3.7c0.08,0.52 0.07,1 0.11,1.61l0.4,0a21.93,21.93 0 0 1 5.54,0.46a5.88,5.88 0 0 1 2.12,0.91a2,2 0 0 1 0.68,2.65a6.73,6.73 0 0 1 -1.84,2.23a27.34,27.34 0 0 1 -6.35,3.87c-1,0.47 -2,0.89 -3.07,1.34l-0.19,0.09a2.56,2.56 0 0 1 -0.17,3.22a2.36,2.36 0 0 1 -2.52,0.77a2.61,2.61 0 0 1 -2,-2.47a68.93,68.93 0 0 1 -16.29,3.13a3.51,3.51 0 0 0 0.93,1.36a3.69,3.69 0 0 0 2.63,0.95l13.1,0c0.93,0 1.86,0 2.79,0a3.53,3.53 0 0 0 3.38,-3.13c0.08,-1 0,-2 0,-3a0.43,0.43 0 0 1 0.28,-0.47c0.17,-0.07 0.32,-0.18 0.51,-0.28a2.06,2.06 0 0 1 0,0.21c0,1.11 0,2.22 0,3.33a4.33,4.33 0 0 1 -3.35,4a12.48,12.48 0 0 1 -1.94,0.13a2.4,2.4 0 0 1 -0.27,0l0.17,0.22l0.76,0.86a0.43,0.43 0 0 1 0,0.6a0.4,0.4 0 0 1 -0.61,-0.06c-0.43,-0.46 -0.85,-0.93 -1.26,-1.42a0.54,0.54 0 0 0 -0.46,-0.2l-10.94,0a0.68,0.68 0 0 0 -0.42,0.19c-0.42,0.44 -0.81,0.9 -1.21,1.36c-0.23,0.26 -0.47,0.31 -0.67,0.13s-0.17,-0.42 0.06,-0.68l0.13,-0.15l0.76,-0.79z" class="cls-2"/>
  <path id="svg_5" fill="#fff" d="m23.58115,20.30536l0,1.41c0,0.94 0,1.88 0,2.82a1.08,1.08 0 0 1 -1.12,1.13c-2.23,0 -4.47,0 -6.7,0a1,1 0 0 1 -1.1,-1.08l0,-8.05a1.06,1.06 0 0 1 1.16,-1.13c1,0 2,0 3,0l3.64,0a1,1 0 0 1 1.08,1.1c0,1 0,1.93 0,2.93l2.17,-0.54c0,0.27 0,0.5 0,0.73c0,0.06 -0.11,0.13 -0.18,0.15l-1.95,0.53z" class="cls-2"/>
  <path id="svg_6" fill="#fff" d="m35.19115,17.31536l0.71,0l0,0.75l-0.7,0.09l0,6.23a1.1,1.1 0 0 1 -0.49,1.08a1.19,1.19 0 0 1 -0.55,0.15l-6.84,0a1,1 0 0 1 -1,-1l0,-8a1,1 0 0 1 1.18,-1.19l6.53,0a1,1 0 0 1 1.19,1.09a7.82,7.82 0 0 1 -0.03,0.8z" class="cls-2"/>
 </g>
</svg>